<svg id="Layer_4" data-name="Layer 4" xmlns="http://www.w3.org/2000/svg" viewBox="0 0 512 300.86"><defs>
<style>.cls-1,.cls-2{fill:none;stroke:#594a4a;stroke-miterlimit:10;stroke-width:3px;}.cls-2{stroke-dasharray:12.14 12.14;}.cls-3{fill:#f16052;}.cls-4{fill:#594a4a;}
</style>
</defs><path class="cls-1" d="M28.67,295.86A44.12,44.12,0,0,1,24,292.1"/><path class="cls-2" d="M16.34,282.73C3.6,262,6.84,231.32,22.87,211.65c20-24.49,53.22-34.22,84.78-35.52s63,4.44,94.61,4.63,65.1-6.14,88.31-27.58c12.92-11.93,22-28.74,21.94-46.33S302,71.41,285.58,65.17s-37.7,1.72-43.8,18.21c-8.42,22.75,15.64,47.43,39.89,47.45S327,114,342.11,95s26.59-40.91,43.95-57.84c14.43-14.06,34.88-24.26,54.3-22.17"/><path class="cls-1" d="M446.34,16a45,45,0,0,1,5.71,1.82"/><path class="cls-3" d="M469.81,17.91a11.17,11.17,0,0,1,.59-3.24c.63-2.77,1.38-5.52,2-8.29.16-.64.4-1.19,1-1.35a1.53,1.53,0,0,1,1.55.76c2.37,3.2,4.89,6.28,7.27,9.47,1.68,2.24,3.52,4.38,5.16,6.65,2.29,3.16,4.84,6.1,7.12,9.28,1.46,2,3.12,4,4.67,5.95,1.3,1.68,2.62,3.34,3.89,5a1.54,1.54,0,0,1-1,2.54c-3,.21-5.94.27-8.92.27-1.21,0-2.41.13-3.62.18-4,.16-7.94.17-11.9.37-2.31.12-4.62.09-6.92.29-1.8.16-3.61.2-5.42.21s-2.24-.7-1.82-2.44c.88-3.59,1.72-7.19,2.58-10.78a2.53,2.53,0,0,0,0-1.06c.37-.05.39-.35.45-.63.43-1.76.9-3.52,1.28-5.29.16-.72.36-.72,1-.4,3.55,1.94,7.13,3.84,10.69,5.76l11.9,6.44c.52.28,1.07.51,1.51-.12s0-1-.44-1.33c-1.34-1.1-2.65-2.23-4-3.32-3.79-3.08-7.61-6.13-11.41-9.2C474.6,21.74,472.1,20,469.81,17.91Z"/><path class="cls-4" d="M469.81,17.91c2.29,2,4.79,3.83,7.17,5.75,3.8,3.07,7.62,6.12,11.41,9.2,1.35,1.09,2.66,2.22,4,3.32.44.36.86.71.44,1.33s-1,.4-1.51.12l-11.9-6.44c-3.56-1.92-7.14-3.82-10.69-5.76-.6-.32-.8-.32-1,.4-.38,1.77-.85,3.53-1.28,5.29-.06.28-.08.58-.45.63-1.9-1.37-3.8-2.74-5.69-4.14-.8-.58-.82-1.05-.07-1.7q4.56-3.93,9.15-7.83A1.19,1.19,0,0,1,469.81,17.91Z"/></svg>