<svg id="Layer_1" data-name="Layer 1" xmlns="http://www.w3.org/2000/svg" viewBox="0 0 512 512"><defs><style>.cls-1{}</style></defs><path class="cls-1" d="M146.64,401.81c-7.77-6.53-11.61-9.82-19.15-16.49C74.07,311.51-56.52,159.78,27.43,66.68,39.77,55.06,54.18,45.1,70,38.82,50.88,75.38,48.86,115.87,53.86,156.09c4.29-45.84,19-86.48,43.72-125.22a134.18,134.18,0,0,1,38.28-.95C123.15,74.1,121,118.4,124.7,164.08c5.86-45.27,18.54-87.37,39.62-127.89,15.88,5.46,31.24,13.48,44.08,24.43C160.66,177.81,162.06,310.1,185,432.84c-8.05-6.3-12-9.45-20-15.89-20.52-48.93-41.32-97.82-59.85-147.54A549.44,549.44,0,0,0,146.64,401.81Z"/><path class="cls-1" d="M267.5,115.58c7.93,56.8,9.81,114.53,10.89,171.8.46,52.5.17,107.42-11.82,158.17-1.53,6.46-10.09,45.83-23.84,35.86-10-7.27-14.21-24.14-18.37-36.2-8.48-24.65-13.86-51-18.22-76.85-7-41.22-10-83.06-10.51-125.11.16-59.37,3.91-118.58,20.18-176,12.22,12.07,22.7,26.4,29.5,42.25-7.7,59.16-9.23,118.65-9.68,178.23,0,12.19-.39,24.66,1,36.65.65,5.43,1.77,8.81,3.12,10.11,1.9,1.81,3.07-1.3,3.53-9.47.82-14.77.75-29.69.86-44.53.35-53,1.56-106,5.87-158.82q2.4,9.13,4.81,18.26A42.26,42.26,0,0,0,267.5,115.58Z"/><path class="cls-1" d="M377.74,29.79c41.28,132.29-10.27,275.76-47.86,403q-13.25,10.46-26.64,20.71c6.5-116.17-2-235.67-31.06-348.56,7.82-16.24,18.91-31.47,32.69-43.2,18.21,40.36,27.82,84.15,34.13,127.75,1.54-48.39-.9-96.12-12-143.36C342.56,37.56,360,31.53,377.74,29.79Z"/><path class="cls-1" d="M496.21,78.35c19.83,30.15,18,67,10.53,100.59-2.12-17.92-7.18-56.57-28.68-62.42-6-1.64-8.07,5.64-7.44,21.42a53,53,0,0,0,3.11,15.31c1.86,5.31,7.19,14.16,13.29,25.49,5.43,10.09,10.6,21.06,12.85,32.6,1.91,9.81.33,22.56-2.81,31.85-4.8,14.2-12.31,27.42-20.5,39.91-17.08,26-39.3,49.23-60.77,72.11-13,13.82-25.46,28.67-39.15,41.55-9.82,9.24-14.26,9.16-16.71-1.88,17-41.05,33.46-82.26,47.92-124.28-1,13-2.31,26.17-1.52,39.1.54,8.7,2.26,12.25,6,10.88,1.84-.67,4.22-3.07,7.2-7.22a79,79,0,0,0,8.1-14.23,51.2,51.2,0,0,0,4.2-14.2c.54-4.4-.47-10.26-3.9-17.65A149.35,149.35,0,0,1,420,246.91c-3-10.2-3.5-21.47-4.34-32-1.55-19.52-.85-39.58-1.08-59.1-.4-33.69-7.82-71.64-2.6-103,3.07-18.48,11.61-24.53,29.49-18.63C462,41,480.46,61.9,496.21,78.35Z"/></svg>