<svg id="Layer_4" data-name="Layer 4" xmlns="http://www.w3.org/2000/svg" viewBox="0 0 150 150"><path d="M0,34.62C0,28.06,0,21.49.06,14.93.19,6.25,6.23.16,15,.09q19.88-.16,39.75,0c8.5.08,14.69,6.15,14.78,14.6q.23,20.07,0,40.14A14.39,14.39,0,0,1,54.77,69.51q-20.07.21-40.14,0C6.21,69.41.19,63.16.07,54.69,0,48,.05,41.31,0,34.62ZM54.7,15H14.91V54.66H54.7Z"/><path d="M149.92,34.86c0,6.56.08,13.12,0,19.68-.12,8.71-6.14,14.89-14.81,15q-19.87.2-39.75,0c-8.67-.08-14.81-6.26-14.88-14.93q-.16-19.87,0-39.76C80.55,6.35,86.67.18,95.11.1q20.07-.19,40.14,0c8.48.08,14.51,6.21,14.65,14.69C150,21.48,149.92,28.17,149.92,34.86ZM135,54.73V14.93H95.34v39.8Z"/><path d="M34.77,150c-6.56,0-13.13.08-19.68,0-8.94-.12-15-6.17-15-15.12q-.12-19.68,0-39.37c.06-8.69,6.16-14.87,14.82-15q19.88-.18,39.75,0c8.67.08,14.79,6.25,14.86,15,.11,13.25.13,26.5,0,39.75-.08,8.49-6.2,14.56-14.65,14.73C48.15,150.05,41.46,150,34.77,150ZM14.86,135h39.8V95.36H14.86Z"/><path d="M149.93,115.41c0,6.43,0,12.86,0,19.3-.09,9.15-6.1,15.17-15.31,15.23q-19.48.12-39,0c-8.94-.06-15.09-6.14-15.16-15q-.15-19.68,0-39.37c.07-8.88,6.23-15,15.15-15.06q19.68-.15,39.37,0c8.71.08,14.79,6.19,14.92,14.86C150,102,149.92,108.72,149.93,115.41Zm-14.84-20H95.3v39.63h39.79Z"/></svg>